<svg width="1728" height="1117" viewBox="0 0 1728 1117" fill="none" xmlns="http://www.w3.org/2000/svg">
<g clip-path="url(#clip0_3_170)">
<rect width="1728" height="1117" fill="white"/>
<rect width="1728" height="1117" fill="url(#paint0_linear_3_170)"/>
<path d="M391.701 331.691C371.701 342.491 225.701 336.191 155.201 331.691C148.801 328.491 157.868 326.358 163.201 325.691C178.701 323.691 210.201 318.191 212.201 312.191C214.701 304.691 237.201 304.691 244.701 302.691C250.701 301.091 257.535 303.358 260.201 304.691C262.035 299.025 271.101 287.191 292.701 285.191C314.301 283.191 325.035 297.358 327.701 304.691C342.901 304.691 349.035 314.691 350.201 319.691C372.368 319.191 411.701 320.891 391.701 331.691Z" fill="#DEECF7"/>
<path d="M315.5 314.5C327.5 307.7 308.167 293 297 286.5C309.8 280.1 322.667 295.833 327.5 304.5C339.1 303.7 347.667 313.833 350.5 319C365.7 318.644 386.5 321.518 395 323C396.5 324 398.6 326.9 395 330.5C391.4 334.1 366.833 336.333 355 337H305.5L228.5 335C228.167 332.333 234.5 327.7 262.5 330.5C290.5 333.3 323.167 324 336 319C324.167 320.333 303.5 321.3 315.5 314.5Z" fill="#D4E7F1"/>
<path d="M1453.7 278.691C1433.7 289.491 1287.7 283.191 1217.2 278.691C1210.8 275.491 1219.87 273.358 1225.2 272.691C1240.7 270.691 1272.2 265.191 1274.2 259.191C1276.7 251.691 1299.2 251.691 1306.7 249.691C1312.7 248.091 1319.53 250.358 1322.2 251.691C1324.03 246.025 1333.1 234.191 1354.7 232.191C1376.3 230.191 1387.03 244.358 1389.7 251.691C1404.9 251.691 1411.03 261.691 1412.2 266.691C1434.37 266.191 1473.7 267.891 1453.7 278.691Z" fill="#DEECF7"/>
<path d="M1377.5 261.5C1389.5 254.7 1370.17 240 1359 233.5C1371.8 227.1 1384.67 242.833 1389.5 251.5C1401.1 250.7 1409.67 260.833 1412.5 266C1427.7 265.644 1448.5 268.518 1457 270C1458.5 271 1460.6 273.9 1457 277.5C1453.4 281.1 1428.83 283.333 1417 284H1367.5L1290.5 282C1290.17 279.333 1296.5 274.7 1324.5 277.5C1352.5 280.3 1385.17 271 1398 266C1386.17 267.333 1365.5 268.3 1377.5 261.5Z" fill="#D4E7F1"/>
<path d="M1042.5 1063.5C1031.3 1065.1 478.167 1054.5 203 1049L-4 1063.5L-18 1236.5H1916.5L1905 978L1400.5 1016C1285.83 1031.17 1053.7 1061.9 1042.5 1063.5Z" fill="#1F3C1E"/>
<path d="M16 1112.92L-14 1127.42L-31.5 1273.92L35 1261.42L90 1215.42L139 1187.42L166 1168.42L139 1127.42L210.5 1070.42L155 1044.92L-3 1101.92L16 1112.92Z" fill="#6D4420"/>
<path d="M157 1045.42C104.333 1035.92 -12.9 1017.72 -20.5 1022.92L-36 1141.42L3.5 1163.42L95 1106.42L157 1045.42Z" fill="#ADD261"/>
<path d="M116.5 1121.42L204 1067.42L210.5 1070.42L140.5 1126.42L165.5 1167.92L140.5 1186.42L91.5 1214.92L45 1253.42L14 1254.92L116.5 1174.42V1121.42Z" fill="#462D15"/>
<path d="M210 1119.97C197.6 1122.37 163.5 1120.97 148 1119.97V1106.97C148 1099.97 156 1102.97 165 1099.47C174 1095.97 170 1102.97 174.5 1102.97C179 1102.97 190 1106.97 202.5 1099.47C215 1091.97 210 1099.47 221.5 1096.47C233 1093.47 239.5 1102.97 250.5 1102.97C261.5 1102.97 268 1108.47 286 1106.97C300.4 1105.77 299 1103.8 296.5 1102.97H309.5C316.5 1102.97 331 1099.47 338 1096.47C345 1093.47 344.5 1096.47 360.5 1093.47C376.5 1090.47 377.5 1102.97 388 1099.47C390 1098.47 393.5 1101.47 396 1102.97C398 1104.17 401.167 1110.8 402.5 1113.97H350.5C328.667 1114.64 284.1 1116.77 280.5 1119.97C276 1123.97 225.5 1116.97 210 1119.97Z" fill="#122112" stroke="#122112"/>
<path d="M347 1065L638 868L626.699 921.856L567.369 1056.5L347 1065Z" fill="#622919"/>
<path d="M485 1059C487.27 1049.95 588.096 927.894 638.225 868L660.925 892.052L712 1059H485Z" fill="#8E261C"/>
<path d="M673.541 981.256L638.203 871L710.293 887.962L805 1059H696.158L617 927.541L673.541 981.256Z" fill="#D35029"/>
<path d="M313.702 1109.18C280.013 1114.06 188.374 1106 146.765 1101.37L148.397 1066.49C149.276 1047.7 170.44 1056.76 195.112 1048.51C219.785 1040.25 208.135 1058.53 220.252 1059.09C232.368 1059.66 261.484 1071.78 296.082 1053.23C330.681 1034.68 316.276 1054.18 347.617 1047.58C378.958 1040.98 395.267 1067.28 424.884 1068.67C454.502 1070.06 471.313 1085.63 519.967 1083.88C558.89 1082.47 555.368 1077.02 548.741 1074.47L583.744 1076.11C602.592 1076.99 642.073 1069.43 661.297 1062.26C680.522 1055.09 678.799 1063.08 722.256 1057.04C765.713 1051.01 766.836 1084.68 795.547 1076.61C801.058 1074.18 810.105 1082.67 816.648 1087.01C821.883 1090.48 829.576 1108.68 832.768 1117.34L692.756 1110.79C633.886 1109.82 513.621 1109.93 503.526 1118.06C490.907 1128.23 355.813 1103.08 313.702 1109.18Z" fill="#122112" stroke="#122112"/>
</g>
<defs>
<linearGradient id="paint0_linear_3_170" x1="864" y1="0" x2="864" y2="1117" gradientUnits="userSpaceOnUse">
<stop stop-color="#98CAEA"/>
<stop offset="1" stop-color="#B2DCF7"/>
</linearGradient>
<clipPath id="clip0_3_170">
<rect width="1728" height="1117" fill="white"/>
</clipPath>
</defs>
</svg>
