<svg width="469" height="142" viewBox="0 0 469 142" fill="none" xmlns="http://www.w3.org/2000/svg">
<path d="M191.864 60.5V16.596H216.952C219.256 16.596 221.325 17.044 223.16 17.94C225.037 18.836 226.509 20.0947 227.576 21.716C228.643 23.3374 229.176 25.236 229.176 27.412C229.176 29.1614 228.856 30.7187 228.216 32.084C227.576 33.4494 226.701 34.58 225.592 35.476C224.525 36.372 223.309 37.0334 221.944 37.46V37.716C223.565 38.0574 224.995 38.6974 226.232 39.636C227.512 40.5747 228.515 41.7907 229.24 43.284C230.008 44.7347 230.392 46.4627 230.392 48.468C230.392 51.1134 229.773 53.332 228.536 55.124C227.341 56.916 225.741 58.26 223.736 59.156C221.731 60.052 219.491 60.5 217.016 60.5H191.864ZM201.4 52.692H215.16C216.739 52.692 218.019 52.244 219 51.348C220.024 50.452 220.536 49.0654 220.536 47.188C220.536 46.0787 220.323 45.1187 219.896 44.308C219.469 43.4974 218.829 42.8787 217.976 42.452C217.123 41.9827 216.035 41.748 214.712 41.748H201.4V52.692ZM201.4 34.324H214.072C215.224 34.324 216.184 34.1107 216.952 33.684C217.763 33.2147 218.36 32.6174 218.744 31.892C219.171 31.124 219.384 30.2494 219.384 29.268C219.384 27.604 218.915 26.3454 217.976 25.492C217.08 24.6387 215.885 24.212 214.392 24.212H201.4V34.324Z" fill="#363641"/>
<path d="M248.164 61.268C244.75 61.268 242.041 60.3294 240.036 58.452C238.03 56.5747 237.028 53.5454 237.028 49.364V26.836H245.924V47.892C245.924 49.0014 246.052 49.94 246.308 50.708C246.564 51.4334 246.926 52.0307 247.396 52.5C247.908 52.9694 248.526 53.3107 249.252 53.524C249.977 53.7374 250.788 53.844 251.684 53.844C253.006 53.844 254.201 53.524 255.268 52.884C256.334 52.244 257.166 51.3694 257.764 50.26C258.361 49.108 258.66 47.828 258.66 46.42V26.836H267.556V60.5H260.26L259.62 55.892H259.172C258.361 56.9587 257.401 57.8974 256.292 58.708C255.225 59.5187 254.009 60.1374 252.644 60.564C251.278 61.0334 249.785 61.268 248.164 61.268Z" fill="#363641"/>
<path d="M289.353 61.268C287.006 61.268 284.894 61.012 283.017 60.5C281.14 59.988 279.54 59.284 278.217 58.388C276.894 57.4494 275.87 56.34 275.145 55.06C274.462 53.78 274.121 52.3294 274.121 50.708C274.121 50.5374 274.121 50.3667 274.121 50.196C274.121 50.0254 274.142 49.8974 274.185 49.812H282.761C282.761 49.8974 282.761 49.9827 282.761 50.068C282.761 50.1534 282.761 50.2387 282.761 50.324C282.804 51.3907 283.145 52.2654 283.785 52.948C284.425 53.588 285.257 54.0574 286.281 54.356C287.348 54.6547 288.457 54.804 289.609 54.804C290.633 54.804 291.614 54.7187 292.553 54.548C293.534 54.3347 294.345 53.972 294.985 53.46C295.668 52.948 296.009 52.2867 296.009 51.476C296.009 50.452 295.582 49.6627 294.729 49.108C293.918 48.5534 292.83 48.1054 291.465 47.764C290.142 47.4227 288.692 47.0387 287.113 46.612C285.662 46.2707 284.212 45.8867 282.761 45.46C281.31 44.9907 279.988 44.3934 278.793 43.668C277.641 42.9427 276.702 42.004 275.977 40.852C275.252 39.6574 274.889 38.164 274.889 36.372C274.889 34.6227 275.273 33.108 276.041 31.828C276.809 30.5054 277.854 29.4174 279.177 28.564C280.542 27.7107 282.121 27.092 283.913 26.708C285.748 26.2814 287.71 26.068 289.801 26.068C291.764 26.068 293.598 26.2814 295.305 26.708C297.012 27.092 298.505 27.6894 299.785 28.5C301.065 29.268 302.068 30.2494 302.793 31.444C303.518 32.596 303.881 33.8974 303.881 35.348C303.881 35.6467 303.881 35.924 303.881 36.18C303.881 36.436 303.86 36.6067 303.817 36.692H295.305V36.18C295.305 35.412 295.07 34.772 294.601 34.26C294.132 33.7054 293.449 33.2787 292.553 32.98C291.7 32.6814 290.654 32.532 289.417 32.532C288.564 32.532 287.774 32.596 287.049 32.724C286.366 32.852 285.769 33.044 285.257 33.3C284.745 33.556 284.34 33.876 284.041 34.26C283.785 34.6014 283.657 35.028 283.657 35.54C283.657 36.2654 283.956 36.8627 284.553 37.332C285.193 37.7587 286.025 38.1214 287.049 38.42C288.073 38.7187 289.204 39.0387 290.441 39.38C291.977 39.8067 293.577 40.2334 295.241 40.66C296.948 41.044 298.526 41.5774 299.977 42.26C301.428 42.9427 302.601 43.924 303.497 45.204C304.393 46.4414 304.841 48.1267 304.841 50.26C304.841 52.308 304.436 54.036 303.625 55.444C302.857 56.852 301.769 57.9827 300.361 58.836C298.953 59.6894 297.31 60.308 295.433 60.692C293.556 61.076 291.529 61.268 289.353 61.268Z" fill="#363641"/>
<path d="M311.284 21.908V14.228H320.18V21.908H311.284ZM311.284 60.5V26.836H320.18V60.5H311.284Z" fill="#363641"/>
<path d="M328.346 60.5V26.836H335.706L336.41 31.444H336.858C337.626 30.3347 338.543 29.3747 339.61 28.564C340.719 27.7534 341.957 27.1347 343.322 26.708C344.687 26.2814 346.181 26.068 347.802 26.068C350.021 26.068 351.962 26.4734 353.626 27.284C355.29 28.0947 356.57 29.3747 357.466 31.124C358.405 32.8734 358.874 35.156 358.874 37.972V60.5H349.978V39.38C349.978 38.3134 349.85 37.4174 349.594 36.692C349.338 35.924 348.954 35.3054 348.442 34.836C347.973 34.324 347.375 33.9614 346.65 33.748C345.925 33.5347 345.114 33.428 344.218 33.428C342.895 33.428 341.701 33.748 340.634 34.388C339.567 35.028 338.735 35.9027 338.138 37.012C337.541 38.1214 337.242 39.4014 337.242 40.852V60.5H328.346Z" fill="#363641"/>
<path d="M382.142 61.268C378.43 61.268 375.315 60.6494 372.798 59.412C370.281 58.132 368.382 56.1907 367.102 53.588C365.822 50.9854 365.182 47.6787 365.182 43.668C365.182 39.6147 365.822 36.308 367.102 33.748C368.382 31.1454 370.259 29.2254 372.734 27.988C375.251 26.708 378.323 26.068 381.95 26.068C385.363 26.068 388.243 26.6867 390.59 27.924C392.937 29.1187 394.707 30.996 395.902 33.556C397.097 36.0734 397.694 39.3374 397.694 43.348V45.652H374.206C374.291 47.6147 374.59 49.2787 375.102 50.644C375.657 52.0094 376.489 53.0334 377.598 53.716C378.75 54.356 380.265 54.676 382.142 54.676C383.166 54.676 384.083 54.548 384.894 54.292C385.747 54.036 386.473 53.652 387.07 53.14C387.667 52.628 388.137 51.988 388.478 51.22C388.819 50.452 388.99 49.5774 388.99 48.596H397.694C397.694 50.7294 397.31 52.5854 396.542 54.164C395.774 55.7427 394.707 57.0654 393.342 58.132C391.977 59.156 390.334 59.9454 388.414 60.5C386.537 61.012 384.446 61.268 382.142 61.268ZM374.334 40.02H388.542C388.542 38.74 388.371 37.6307 388.03 36.692C387.731 35.7534 387.305 34.9854 386.75 34.388C386.195 33.7907 385.513 33.364 384.702 33.108C383.934 32.8094 383.059 32.66 382.078 32.66C380.457 32.66 379.091 32.9374 377.982 33.492C376.915 34.004 376.083 34.8147 375.486 35.924C374.931 36.9907 374.547 38.356 374.334 40.02Z" fill="#363641"/>
<path d="M417.853 61.268C415.506 61.268 413.394 61.012 411.517 60.5C409.64 59.988 408.04 59.284 406.717 58.388C405.394 57.4494 404.37 56.34 403.645 55.06C402.962 53.78 402.621 52.3294 402.621 50.708C402.621 50.5374 402.621 50.3667 402.621 50.196C402.621 50.0254 402.642 49.8974 402.685 49.812H411.261C411.261 49.8974 411.261 49.9827 411.261 50.068C411.261 50.1534 411.261 50.2387 411.261 50.324C411.304 51.3907 411.645 52.2654 412.285 52.948C412.925 53.588 413.757 54.0574 414.781 54.356C415.848 54.6547 416.957 54.804 418.109 54.804C419.133 54.804 420.114 54.7187 421.053 54.548C422.034 54.3347 422.845 53.972 423.485 53.46C424.168 52.948 424.509 52.2867 424.509 51.476C424.509 50.452 424.082 49.6627 423.229 49.108C422.418 48.5534 421.33 48.1054 419.965 47.764C418.642 47.4227 417.192 47.0387 415.613 46.612C414.162 46.2707 412.712 45.8867 411.261 45.46C409.81 44.9907 408.488 44.3934 407.293 43.668C406.141 42.9427 405.202 42.004 404.477 40.852C403.752 39.6574 403.389 38.164 403.389 36.372C403.389 34.6227 403.773 33.108 404.541 31.828C405.309 30.5054 406.354 29.4174 407.677 28.564C409.042 27.7107 410.621 27.092 412.413 26.708C414.248 26.2814 416.21 26.068 418.301 26.068C420.264 26.068 422.098 26.2814 423.805 26.708C425.512 27.092 427.005 27.6894 428.285 28.5C429.565 29.268 430.568 30.2494 431.293 31.444C432.018 32.596 432.381 33.8974 432.381 35.348C432.381 35.6467 432.381 35.924 432.381 36.18C432.381 36.436 432.36 36.6067 432.317 36.692H423.805V36.18C423.805 35.412 423.57 34.772 423.101 34.26C422.632 33.7054 421.949 33.2787 421.053 32.98C420.2 32.6814 419.154 32.532 417.917 32.532C417.064 32.532 416.274 32.596 415.549 32.724C414.866 32.852 414.269 33.044 413.757 33.3C413.245 33.556 412.84 33.876 412.541 34.26C412.285 34.6014 412.157 35.028 412.157 35.54C412.157 36.2654 412.456 36.8627 413.053 37.332C413.693 37.7587 414.525 38.1214 415.549 38.42C416.573 38.7187 417.704 39.0387 418.941 39.38C420.477 39.8067 422.077 40.2334 423.741 40.66C425.448 41.044 427.026 41.5774 428.477 42.26C429.928 42.9427 431.101 43.924 431.997 45.204C432.893 46.4414 433.341 48.1267 433.341 50.26C433.341 52.308 432.936 54.036 432.125 55.444C431.357 56.852 430.269 57.9827 428.861 58.836C427.453 59.6894 425.81 60.308 423.933 60.692C422.056 61.076 420.029 61.268 417.853 61.268Z" fill="#363641"/>
<path d="M453.415 61.268C451.069 61.268 448.957 61.012 447.079 60.5C445.202 59.988 443.602 59.284 442.28 58.388C440.957 57.4494 439.933 56.34 439.208 55.06C438.525 53.78 438.184 52.3294 438.184 50.708C438.184 50.5374 438.184 50.3667 438.184 50.196C438.184 50.0254 438.205 49.8974 438.247 49.812H446.824C446.824 49.8974 446.824 49.9827 446.824 50.068C446.824 50.1534 446.824 50.2387 446.824 50.324C446.866 51.3907 447.207 52.2654 447.848 52.948C448.488 53.588 449.32 54.0574 450.344 54.356C451.41 54.6547 452.52 54.804 453.672 54.804C454.695 54.804 455.677 54.7187 456.616 54.548C457.597 54.3347 458.408 53.972 459.048 53.46C459.73 52.948 460.072 52.2867 460.072 51.476C460.072 50.452 459.645 49.6627 458.792 49.108C457.981 48.5534 456.893 48.1054 455.527 47.764C454.205 47.4227 452.754 47.0387 451.176 46.612C449.725 46.2707 448.274 45.8867 446.824 45.46C445.373 44.9907 444.05 44.3934 442.855 43.668C441.704 42.9427 440.765 42.004 440.04 40.852C439.314 39.6574 438.952 38.164 438.952 36.372C438.952 34.6227 439.335 33.108 440.104 31.828C440.872 30.5054 441.917 29.4174 443.24 28.564C444.605 27.7107 446.184 27.092 447.975 26.708C449.81 26.2814 451.773 26.068 453.863 26.068C455.826 26.068 457.661 26.2814 459.367 26.708C461.074 27.092 462.568 27.6894 463.848 28.5C465.128 29.268 466.13 30.2494 466.855 31.444C467.581 32.596 467.944 33.8974 467.944 35.348C467.944 35.6467 467.944 35.924 467.944 36.18C467.944 36.436 467.922 36.6067 467.88 36.692H459.367V36.18C459.367 35.412 459.133 34.772 458.664 34.26C458.194 33.7054 457.512 33.2787 456.616 32.98C455.762 32.6814 454.717 32.532 453.479 32.532C452.626 32.532 451.837 32.596 451.112 32.724C450.429 32.852 449.832 33.044 449.32 33.3C448.808 33.556 448.402 33.876 448.104 34.26C447.848 34.6014 447.72 35.028 447.72 35.54C447.72 36.2654 448.018 36.8627 448.616 37.332C449.256 37.7587 450.088 38.1214 451.112 38.42C452.135 38.7187 453.266 39.0387 454.504 39.38C456.04 39.8067 457.639 40.2334 459.303 40.66C461.01 41.044 462.589 41.5774 464.04 42.26C465.49 42.9427 466.664 43.924 467.56 45.204C468.456 46.4414 468.904 48.1267 468.904 50.26C468.904 52.308 468.498 54.036 467.688 55.444C466.919 56.852 465.831 57.9827 464.423 58.836C463.016 59.6894 461.373 60.308 459.496 60.692C457.618 61.076 455.591 61.268 453.415 61.268Z" fill="#363641"/>
<path d="M211.512 131.268C206.947 131.268 203.043 130.479 199.8 128.9C196.557 127.279 194.083 124.783 192.376 121.412C190.712 118.041 189.88 113.753 189.88 108.548C189.88 100.868 191.757 95.172 195.512 91.46C199.309 87.7054 204.643 85.828 211.512 85.828C215.267 85.828 218.637 86.468 221.624 87.748C224.611 89.028 226.957 90.948 228.664 93.508C230.413 96.068 231.288 99.2894 231.288 103.172H221.688C221.688 101.124 221.261 99.396 220.408 97.988C219.597 96.58 218.424 95.5134 216.888 94.788C215.395 94.02 213.645 93.636 211.64 93.636C208.909 93.636 206.648 94.1694 204.856 95.236C203.107 96.3027 201.805 97.8814 200.952 99.972C200.141 102.02 199.736 104.537 199.736 107.524V109.508C199.736 112.58 200.163 115.161 201.016 117.252C201.869 119.3 203.149 120.857 204.856 121.924C206.605 122.948 208.845 123.46 211.576 123.46C213.709 123.46 215.565 123.097 217.144 122.372C218.723 121.647 219.939 120.58 220.792 119.172C221.645 117.764 222.072 116.036 222.072 113.988H231.288C231.288 117.871 230.435 121.092 228.728 123.652C227.064 126.212 224.739 128.132 221.752 129.412C218.765 130.649 215.352 131.268 211.512 131.268Z" fill="#363641"/>
<path d="M253.33 131.268C249.618 131.268 246.503 130.649 243.986 129.412C241.468 128.132 239.57 126.191 238.29 123.588C237.01 120.985 236.37 117.679 236.37 113.668C236.37 109.615 237.01 106.308 238.29 103.748C239.57 101.145 241.447 99.2254 243.922 97.988C246.439 96.708 249.511 96.068 253.138 96.068C256.551 96.068 259.431 96.6867 261.778 97.924C264.124 99.1187 265.895 100.996 267.09 103.556C268.284 106.073 268.882 109.337 268.882 113.348V115.652H245.394C245.479 117.615 245.778 119.279 246.29 120.644C246.844 122.009 247.676 123.033 248.786 123.716C249.938 124.356 251.452 124.676 253.33 124.676C254.354 124.676 255.271 124.548 256.082 124.292C256.935 124.036 257.66 123.652 258.258 123.14C258.855 122.628 259.324 121.988 259.666 121.22C260.007 120.452 260.178 119.577 260.178 118.596H268.882C268.882 120.729 268.498 122.585 267.73 124.164C266.962 125.743 265.895 127.065 264.53 128.132C263.164 129.156 261.522 129.945 259.602 130.5C257.724 131.012 255.634 131.268 253.33 131.268ZM245.522 110.02H259.73C259.73 108.74 259.559 107.631 259.218 106.692C258.919 105.753 258.492 104.985 257.938 104.388C257.383 103.791 256.7 103.364 255.89 103.108C255.122 102.809 254.247 102.66 253.266 102.66C251.644 102.66 250.279 102.937 249.17 103.492C248.103 104.004 247.271 104.815 246.674 105.924C246.119 106.991 245.735 108.356 245.522 110.02Z" fill="#363641"/>
<path d="M275.409 130.5V96.836H282.769L283.473 101.444H283.921C284.688 100.335 285.606 99.3747 286.673 98.564C287.782 97.7534 289.019 97.1347 290.385 96.708C291.75 96.2814 293.243 96.068 294.865 96.068C297.083 96.068 299.025 96.4734 300.689 97.284C302.353 98.0947 303.633 99.3747 304.529 101.124C305.467 102.873 305.937 105.156 305.937 107.972V130.5H297.041V109.38C297.041 108.313 296.913 107.417 296.657 106.692C296.401 105.924 296.017 105.305 295.505 104.836C295.035 104.324 294.438 103.961 293.713 103.748C292.987 103.535 292.176 103.428 291.281 103.428C289.958 103.428 288.763 103.748 287.697 104.388C286.63 105.028 285.798 105.903 285.201 107.012C284.603 108.121 284.305 109.401 284.305 110.852V130.5H275.409Z" fill="#363641"/>
<path d="M323.957 131.268C321.823 131.268 320.095 130.884 318.773 130.116C317.45 129.348 316.49 128.324 315.893 127.044C315.295 125.721 314.997 124.271 314.997 122.692V103.684H310.837V96.836H315.317L316.981 87.236H323.893V96.836H330.036V103.684H323.893V121.22C323.893 122.244 324.127 123.033 324.597 123.588C325.066 124.1 325.834 124.356 326.901 124.356H330.036V130.244C329.525 130.415 328.927 130.564 328.245 130.692C327.562 130.863 326.837 130.991 326.069 131.076C325.301 131.204 324.597 131.268 323.957 131.268Z" fill="#363641"/>
<path d="M351.079 131.268C347.367 131.268 344.253 130.649 341.736 129.412C339.218 128.132 337.32 126.191 336.04 123.588C334.76 120.985 334.12 117.679 334.12 113.668C334.12 109.615 334.76 106.308 336.04 103.748C337.32 101.145 339.197 99.2254 341.672 97.988C344.189 96.708 347.261 96.068 350.888 96.068C354.301 96.068 357.181 96.6867 359.528 97.924C361.874 99.1187 363.645 100.996 364.84 103.556C366.034 106.073 366.632 109.337 366.632 113.348V115.652H343.144C343.229 117.615 343.528 119.279 344.04 120.644C344.594 122.009 345.426 123.033 346.536 123.716C347.688 124.356 349.202 124.676 351.079 124.676C352.104 124.676 353.021 124.548 353.832 124.292C354.685 124.036 355.41 123.652 356.008 123.14C356.605 122.628 357.074 121.988 357.416 121.22C357.757 120.452 357.928 119.577 357.928 118.596H366.632C366.632 120.729 366.248 122.585 365.48 124.164C364.712 125.743 363.645 127.065 362.28 128.132C360.914 129.156 359.271 129.945 357.352 130.5C355.474 131.012 353.383 131.268 351.079 131.268ZM343.271 110.02H357.48C357.48 108.74 357.309 107.631 356.967 106.692C356.669 105.753 356.242 104.985 355.688 104.388C355.133 103.791 354.45 103.364 353.64 103.108C352.872 102.809 351.997 102.66 351.016 102.66C349.394 102.66 348.029 102.937 346.92 103.492C345.853 104.004 345.021 104.815 344.424 105.924C343.869 106.991 343.485 108.356 343.271 110.02Z" fill="#363641"/>
<path d="M373.159 130.5V96.836H380.519L381.223 102.084H381.671C382.097 100.975 382.652 99.972 383.335 99.076C384.017 98.1374 384.87 97.3907 385.895 96.836C386.919 96.2814 388.113 96.004 389.479 96.004C390.204 96.004 390.865 96.0894 391.463 96.26C392.06 96.388 392.508 96.516 392.807 96.644V104.708H390.055C388.732 104.708 387.559 104.9 386.535 105.284C385.553 105.625 384.721 106.18 384.039 106.948C383.356 107.716 382.844 108.655 382.503 109.764C382.204 110.873 382.055 112.175 382.055 113.668V130.5H373.159Z" fill="#363641"/>
<path d="M165.5 4V141.5" stroke="#363641" stroke-width="3"/>
<mask id="mask0_127_32" style="mask-type:alpha" maskUnits="userSpaceOnUse" x="47" y="7" width="96" height="131">
<path d="M64.5 8.22314C53.7 7.82314 49 18.3898 48 23.7231C48.1667 54.2231 48.5 117.023 48.5 124.223C48.5 131.423 57.3333 135.556 61 136.723H109C113.5 135.723 134 129.723 141 106.723C146.6 88.3231 131.667 74.3898 123.5 69.7231C134.3 60.9231 137.667 49.0565 138 44.2231C140.4 17.4231 117.333 9.05647 105.5 8.22314C96.3333 8.38981 75.3 8.62314 64.5 8.22314Z" fill="#363641" stroke="black"/>
</mask>
<g mask="url(#mask0_127_32)">
<rect x="38" y="8.2121" width="95" height="12" fill="#363641"/>
<rect x="78" y="27.2121" width="64" height="12" fill="#363641"/>
<rect x="96" y="46.2121" width="46" height="12" fill="#363641"/>
<rect x="13" y="64.7121" width="126" height="12" fill="#363641"/>
<rect x="81" y="85.2121" width="68" height="12" fill="#363641"/>
<rect x="91" y="104.212" width="56" height="12" fill="#363641"/>
<rect x="41" y="125.212" width="98" height="12" fill="#363641"/>
</g>
<path d="M0 65H39V77H3.84507L0 65Z" fill="#363641"/>
<path d="M13.5455 96.7121L9 85.7121H34L29.1299 96.7121H13.5455Z" fill="#363641"/>
<path d="M19.2391 137L15.5652 105H28L25.1739 137H19.2391Z" fill="#363641"/>
<path d="M4.37476 36.6213C0.15581 45.3235 7.36329 53.18 11.4944 56.0205C7.21022 47.5829 11.1608 39.6528 11.7194 38.6082C11.7194 38.6082 17.9702 30.0143 20.9676 22.3256C24.0615 14.3897 21.8983 5.28422 20.5661 1.77378C19.5376 7.9242 16.6232 21.2197 13.1942 25.1984C9.76516 29.1771 5.88581 34.4715 4.37476 36.6213Z" fill="#363641"/>
<path d="M23.2095 30.754C27.5292 25.4801 26.691 14.8316 25.732 10.1665C26.9248 12.1273 29.2857 18.0528 29.1873 26.0693C29.0642 36.0899 25.3947 39.8595 22.3989 44.4304C20.0023 48.0871 20.0586 55.7454 20.3864 59.1175C19.0873 58.386 16.0941 55.477 14.5134 49.6932C12.5377 42.4634 17.8098 37.3462 23.2095 30.754Z" fill="#363641"/>
<path d="M29.9517 43.0149C25.8697 48.3071 25.1322 56.1437 25.2622 58.5852C35.6652 54.283 37.186 49.5846 38.7204 40.4291C39.9479 33.1047 37.2804 25.5674 35.7932 22.7144C37.5915 27.6996 33.8016 38.0238 29.9517 43.0149Z" fill="#363641"/>
</svg>
