<svg width="315" height="115" viewBox="0 0 315 115" fill="none" xmlns="http://www.w3.org/2000/svg">
<path d="M132.496 44.5294H111.313L121.904 25.743L145.85 9.24767L120.523 22.9938L105.787 44.5294L120.523 16.5789L151.376 1L183.611 16.5789L196.965 44.5294H172.559L151.376 11.5387L132.496 44.5294Z" fill="#393939" stroke="#393939" stroke-linecap="round" stroke-linejoin="round"/>
<g opacity="0.754417">
<path d="M7.37267 89.9616C7.37267 90.2522 7.52919 90.5539 7.84224 90.8669C8.15528 91.1574 8.63603 91.4368 9.28448 91.705C9.95529 91.9732 10.805 92.1967 11.8336 92.3755C12.8845 92.532 14.1367 92.6214 15.5901 92.6437C14.9193 92.2861 14.2373 91.9173 13.5441 91.5374C12.8733 91.1351 12.2249 90.7774 11.5988 90.4645C10.9727 90.1293 10.4025 89.8611 9.88821 89.6599C9.37392 89.4364 8.9379 89.3246 8.58013 89.3246C7.77516 89.3246 7.37267 89.537 7.37267 89.9616ZM37.1902 52.6469C37.5256 51.9764 37.9281 51.3841 38.3976 50.87C38.8672 50.3559 39.3703 49.9313 39.907 49.596C40.4436 49.2607 40.9914 49.0149 41.5505 48.8584C42.1095 48.6796 42.6349 48.5902 43.1269 48.5902C43.8424 48.5902 44.4461 48.7802 44.938 49.1602C45.43 49.5178 45.6759 50.0542 45.6759 50.7694C45.6759 51.3282 45.5306 51.9317 45.2399 52.5798C43.9877 55.2619 42.7132 57.9664 41.4163 60.6932C40.1194 63.3977 38.8113 66.0462 37.4921 68.6389C36.1952 71.2316 34.9206 73.7349 33.6684 76.1488C32.4163 78.5404 31.2088 80.7643 30.0461 82.8205C28.8833 84.8768 27.7877 86.7208 26.7591 88.3524C25.7529 89.984 24.8361 91.3362 24.0088 92.4091C25.9541 92.2749 27.7318 92.0961 29.3417 91.8726C30.9516 91.6491 32.5057 91.3921 34.0038 91.1015C35.502 90.811 37.0001 90.4981 38.4983 90.1628C40.0188 89.8052 41.6511 89.4476 43.3952 89.09C43.507 89.0453 43.63 89.0117 43.7641 88.9894C43.8983 88.967 44.0213 88.9558 44.1331 88.9558C44.8262 88.9558 45.3741 89.2352 45.7766 89.794C46.179 90.3304 46.3803 90.945 46.3803 91.6379C46.3803 92.0626 45.9778 92.5208 45.1728 93.0125C44.3679 93.4819 43.261 93.9512 41.8523 94.4206C40.466 94.89 38.8225 95.3482 36.9219 95.7952C35.0436 96.2198 33.0088 96.5998 30.8175 96.9351C28.6262 97.248 26.3342 97.4938 23.9417 97.6726C21.5491 97.8738 19.1677 97.9744 16.7976 97.9744C14.0472 97.9744 11.677 97.7844 9.68697 97.4044C7.6969 97.0245 6.05341 96.4992 4.75651 95.8287C3.48198 95.1582 2.53166 94.3647 1.90557 93.4483C1.30184 92.532 0.999977 91.5373 0.999977 90.4645C0.999977 89.414 1.19004 88.5312 1.57016 87.8159C1.97265 87.0783 2.5093 86.486 3.18011 86.039C3.87328 85.592 4.67826 85.2679 5.59503 85.0668C6.53416 84.8656 7.54038 84.765 8.61367 84.765C9.48573 84.765 10.3913 84.9215 11.3305 85.2344C12.2696 85.5473 13.1864 85.9608 14.0808 86.4749C14.9976 86.9666 15.8584 87.5254 16.6634 88.1512C17.4907 88.7547 18.2063 89.3693 18.81 89.9951C19.3243 88.6541 19.9392 87.1566 20.6547 85.5026C21.3926 83.8486 22.1864 82.1165 23.0361 80.306C23.8858 78.4733 24.7802 76.607 25.7193 74.7071C26.6585 72.785 27.5976 70.8963 28.5367 69.0412C29.4759 67.1861 30.3926 65.398 31.2871 63.677C32.1815 61.956 33.0088 60.3802 33.7691 58.9498C34.5293 57.5193 35.2001 56.2565 35.7815 55.1613C36.3852 54.0661 36.8548 53.228 37.1902 52.6469Z" fill="black" stroke="black" stroke-linecap="square"/>
<path d="M56.7108 78.6633C55.6598 78.6633 54.6424 78.9315 53.6586 79.4679C52.6747 80.0043 51.8027 80.7084 51.0424 81.5801C50.2822 82.4518 49.6784 83.4352 49.2312 84.5304C48.784 85.6032 48.5604 86.6872 48.5604 87.7824C48.5604 88.2294 48.5828 88.6988 48.6275 89.1905C48.6946 89.6599 48.8287 90.0957 49.03 90.4981C49.2312 90.9004 49.5107 91.2356 49.8685 91.5038C50.2486 91.7721 50.7517 91.9062 51.3778 91.9062C51.8697 91.9062 52.4399 91.6938 53.0884 91.2692C53.7592 90.8221 54.4412 90.2634 55.1343 89.5928C55.8499 88.9 56.543 88.1512 57.2139 87.3466C57.8847 86.5196 58.4884 85.715 59.025 84.9327C59.5617 84.1504 59.9977 83.4464 60.3331 82.8205C60.6685 82.1947 60.8362 81.7365 60.8362 81.446C60.8362 81.0213 60.6909 80.6413 60.4002 80.3061C60.1095 79.9485 59.7517 79.6467 59.3269 79.4009C58.9021 79.155 58.4437 78.9762 57.9517 78.8644C57.4822 78.7303 57.0685 78.6633 56.7108 78.6633ZM79.9543 87.3131C79.5519 87.693 79.0152 88.2183 78.3444 88.8888C77.6736 89.5593 76.9021 90.2857 76.0301 91.068C75.1804 91.8503 74.2636 92.6437 73.2798 93.4484C72.3183 94.2307 71.3232 94.9459 70.2947 95.5941C69.2885 96.2422 68.2934 96.7675 67.3096 97.1698C66.3257 97.5945 65.3978 97.8068 64.5257 97.8068C63.7431 97.8068 63.0723 97.6392 62.5133 97.3039C61.9543 96.9686 61.4847 96.5328 61.1046 95.9964C60.7468 95.4599 60.4785 94.8565 60.2996 94.1859C60.1207 93.4931 60.0313 92.789 60.0313 92.0738C60.0313 91.6044 60.0648 91.1462 60.1319 90.6992C60.199 90.2298 60.3108 89.794 60.4673 89.3917C59.7741 90.3304 58.9803 91.3027 58.0859 92.3085C57.2139 93.2919 56.2635 94.1971 55.235 95.0241C54.2288 95.8287 53.1666 96.4881 52.0486 97.0022C50.953 97.5386 49.835 97.8068 48.6946 97.8068C48.1132 97.8068 47.4312 97.6839 46.6486 97.438C45.8884 97.2145 45.1616 96.8345 44.4685 96.2981C43.7753 95.7617 43.1939 95.0688 42.7244 94.2195C42.2548 93.3701 42.02 92.3308 42.02 91.1015C42.02 90.1851 42.1542 89.09 42.4225 87.816C42.7132 86.542 43.138 85.2233 43.697 83.8599C44.2784 82.4741 45.0051 81.1107 45.8772 79.7696C46.7716 78.4286 47.8225 77.2328 49.03 76.1823C50.2374 75.1095 51.6126 74.249 53.1555 73.6008C54.6983 72.9303 56.4201 72.595 58.3207 72.595C59.3046 72.595 60.1654 72.718 60.9033 72.9638C61.6412 73.2097 62.2673 73.4779 62.7816 73.7684C63.363 74.1261 63.8773 74.5172 64.3245 74.9419C64.7046 74.7407 65.0959 74.5507 65.4984 74.3719C65.8338 74.2155 66.1804 74.0814 66.5381 73.9696C66.9183 73.8355 67.2425 73.7684 67.5108 73.7684C68.3605 73.7684 69.0537 74.0031 69.5903 74.4725C70.127 74.9419 70.3953 75.4559 70.3953 76.0147C70.3953 76.1712 70.3841 76.2941 70.3617 76.3835C70.2499 76.8082 70.071 77.3446 69.8251 77.9928C69.6015 78.6409 69.3443 79.3673 69.0536 80.172C68.763 80.9542 68.4611 81.7812 68.148 82.6529C67.8573 83.5022 67.589 84.3404 67.3431 85.1674C67.0971 85.9944 66.8959 86.7766 66.7393 87.5142C66.5828 88.2294 66.5046 88.8441 66.5046 89.3582C66.5046 90.0287 66.6164 90.5875 66.84 91.0345C67.0636 91.4592 67.4437 91.6715 67.9803 91.6715C68.3157 91.6715 68.707 91.5709 69.1542 91.3697C69.6238 91.1462 70.1269 90.8557 70.6636 90.4981C71.2002 90.1404 71.7481 89.7381 72.3071 89.2911C72.8884 88.8217 73.4474 88.3524 73.9841 87.883C75.2363 86.7655 76.5667 85.4915 77.9754 84.061C78.3332 83.7705 78.6798 83.6252 79.0152 83.6252C79.4624 83.6252 79.8313 83.8487 80.122 84.2957C80.4351 84.7204 80.5916 85.2009 80.5916 85.7373C80.5916 86.3632 80.3792 86.8884 79.9543 87.3131Z" fill="black" stroke="black" stroke-linecap="square"/>
<path d="M93.3035 78.1604C92.0289 78.1604 90.7544 78.4733 89.4798 79.0991C88.2053 79.7026 87.0537 80.5072 86.0252 81.513C85.019 82.5188 84.1916 83.6587 83.5432 84.9327C82.8947 86.1843 82.5705 87.4583 82.5705 88.7547C82.5705 89.1123 82.604 89.4811 82.6711 89.861C82.7382 90.2187 82.8724 90.5539 83.0736 90.8668C83.2972 91.1797 83.6102 91.4368 84.0127 91.6379C84.4152 91.8391 84.9519 91.9397 85.6227 91.9397C86.9196 91.9397 88.1718 91.6379 89.3792 91.0345C90.609 90.4086 91.7047 89.5928 92.6662 88.587C93.6277 87.5813 94.3991 86.4525 94.9805 85.2009C95.5618 83.9269 95.8525 82.6529 95.8525 81.3789C95.8525 81.0436 95.819 80.686 95.7519 80.3061C95.7072 79.9261 95.5954 79.5797 95.4165 79.2667C95.2376 78.9538 94.9805 78.6968 94.6451 78.4956C94.3097 78.2721 93.8625 78.1604 93.3035 78.1604ZM96.1209 91.6715C94.2202 93.9512 92.1966 95.6276 90.05 96.7004C87.9258 97.7509 85.6227 98.2761 83.1407 98.2761C81.7767 98.2761 80.6251 98.075 79.686 97.6727C78.7469 97.2927 77.9866 96.7675 77.4053 96.0969C76.8239 95.4264 76.399 94.6441 76.1307 93.7501C75.8848 92.8561 75.7618 91.9061 75.7618 90.9004C75.7618 89.7605 75.9071 88.587 76.1978 87.3801C76.4885 86.1508 76.8686 84.9662 77.3382 83.8263C77.6512 83.0887 77.9084 82.4741 78.1096 81.9824C78.3108 81.4907 78.4786 81.0772 78.6127 80.7419C78.7469 80.3843 78.8587 80.0825 78.9481 79.8367C79.0599 79.5685 79.1717 79.3003 79.2835 79.0321C79.3953 78.7415 79.5295 78.4174 79.686 78.0598C79.8425 77.6798 80.055 77.1993 80.3233 76.6182L90.1171 54.8596C90.2513 54.569 90.4413 54.2897 90.6873 54.0214C90.9556 53.7532 91.2575 53.5186 91.5929 53.3174C91.9283 53.0939 92.2861 52.9263 92.6662 52.8145C93.0687 52.6804 93.4712 52.6133 93.8737 52.6133C94.9022 52.6133 95.6178 52.8145 96.0202 53.2168C96.4451 53.6191 96.6575 54.1109 96.6575 54.692C96.6575 55.139 96.5457 55.6307 96.3221 56.1671C96.0985 56.6812 95.8525 57.1617 95.5842 57.6088C93.9295 60.7826 92.3643 64.0123 90.8885 67.2979C89.4128 70.5611 87.8475 73.7908 86.1929 76.9869C86.9084 76.4282 87.6687 75.8918 88.4736 75.3777C89.2786 74.8413 90.1171 74.3719 90.9892 73.9696C91.8612 73.5449 92.7668 73.2097 93.7059 72.9638C94.6451 72.6956 95.6066 72.5615 96.5904 72.5615C97.2836 72.5615 97.988 72.6956 98.7035 72.9638C99.419 73.232 100.067 73.6231 100.649 74.1372C101.253 74.6513 101.733 75.2883 102.091 76.0482C102.471 76.7858 102.661 77.6463 102.661 78.6297C102.661 78.8532 102.594 79.3003 102.46 79.9708C102.326 80.6413 102.125 81.4012 101.856 82.2506C101.61 83.0776 101.297 83.9381 100.917 84.8321C100.559 85.7038 100.157 86.4749 99.7097 87.1454C99.8662 87.3913 100.067 87.5477 100.313 87.6148C100.559 87.6595 100.839 87.6818 101.152 87.6818C102.181 87.6818 103.198 87.5477 104.204 87.2795C105.233 87.0113 106.194 86.6872 107.089 86.3073C108.005 85.9049 108.844 85.4914 109.604 85.0668C110.364 84.6421 111.002 84.2733 111.516 83.9604C111.784 83.6698 112.075 83.5246 112.388 83.5246C112.768 83.5246 113.092 83.6922 113.361 84.0275C113.651 84.3627 113.797 84.7986 113.797 85.335C113.797 85.8491 113.685 86.3631 113.461 86.8772C113.26 87.3689 112.88 87.9165 112.321 88.52C111.315 89.1235 110.297 89.6934 109.269 90.2298C108.263 90.7662 107.234 91.2356 106.183 91.6379C105.132 92.0179 104.059 92.3308 102.963 92.5767C101.89 92.8002 100.794 92.9119 99.6761 92.9119C98.9606 92.9119 98.301 92.8113 97.6973 92.6102C97.0935 92.409 96.5681 92.0961 96.1209 91.6715Z" fill="black" stroke="black" stroke-linecap="square"/>
<path d="M119.7 78.4957C118.649 78.4957 117.632 78.7639 116.648 79.3003C115.686 79.8144 114.825 80.5072 114.065 81.3789C113.327 82.2282 112.735 83.2005 112.287 84.2957C111.84 85.3685 111.617 86.4749 111.617 87.6148C111.617 88.0395 111.65 88.5088 111.717 89.0229C111.784 89.5146 111.918 89.984 112.12 90.431C112.343 90.8557 112.656 91.2133 113.059 91.5038C113.461 91.7944 113.998 91.9397 114.669 91.9397C115.697 91.9397 116.692 91.6715 117.654 91.135C118.638 90.5763 119.51 89.8611 120.27 88.9894C121.03 88.0953 121.634 87.0896 122.081 85.972C122.528 84.8545 122.752 83.7258 122.752 82.5859C122.752 82.1388 122.718 81.6806 122.651 81.2113C122.607 80.7196 122.473 80.2725 122.249 79.8702C122.048 79.4679 121.746 79.1438 121.343 78.898C120.941 78.6298 120.393 78.4957 119.7 78.4957ZM121.444 72.595C122.294 72.595 123.199 72.7068 124.161 72.9303C125.145 73.1538 126.05 73.5338 126.878 74.0702C127.705 74.6066 128.387 75.3218 128.923 76.2159C129.482 77.0875 129.762 78.1716 129.762 79.4679C129.762 80.1384 129.673 80.9095 129.494 81.7812C129.315 82.6306 129.046 83.5246 128.689 84.4633C128.912 84.7315 129.169 84.9215 129.46 85.0333C129.751 85.145 130.064 85.2009 130.399 85.2009C130.869 85.2009 131.383 85.0668 131.942 84.7986C132.523 84.5304 133.116 84.1839 133.72 83.7593C134.323 83.3346 134.927 82.8541 135.531 82.3177C136.135 81.7812 136.705 81.2448 137.242 80.7084C137.778 80.172 138.259 79.6691 138.684 79.1997C139.131 78.708 139.5 78.2945 139.791 77.9592C139.947 77.8028 140.137 77.7245 140.361 77.7245C140.674 77.7245 140.953 77.8922 141.199 78.2274C141.445 78.5404 141.568 78.9874 141.568 79.5685C141.568 80.1496 141.389 80.8201 141.032 81.5801C140.696 82.34 140.059 83.1335 139.12 83.9604C138.583 84.5416 137.968 85.2121 137.275 85.972C136.582 86.7319 135.844 87.4472 135.061 88.1177C134.279 88.7882 133.463 89.3582 132.613 89.8275C131.763 90.2969 130.914 90.5316 130.064 90.5316C129.482 90.5316 128.912 90.4422 128.353 90.2634C127.817 90.0846 127.269 89.794 126.71 89.3917C125.905 90.6433 124.988 91.7832 123.959 92.8114C122.931 93.8395 121.779 94.7224 120.505 95.46C119.253 96.1975 117.889 96.7675 116.413 97.1698C114.959 97.5945 113.405 97.8068 111.751 97.8068C111.125 97.8068 110.398 97.6839 109.571 97.438C108.743 97.1921 107.949 96.7898 107.189 96.231C106.451 95.6499 105.825 94.9012 105.311 93.9848C104.797 93.0684 104.54 91.9509 104.54 90.6322C104.54 89.7381 104.685 88.6653 104.976 87.4136C105.266 86.162 105.702 84.8768 106.284 83.5581C106.887 82.2171 107.636 80.8984 108.531 79.602C109.448 78.2833 110.532 77.1099 111.784 76.0818C113.036 75.0313 114.468 74.1931 116.077 73.5673C117.687 72.9191 119.476 72.595 121.444 72.595Z" fill="black" stroke="black" stroke-linecap="square"/>
<path d="M147.002 77.4228C147.874 76.8864 148.768 76.3947 149.685 75.9477C150.624 75.5006 151.53 75.1207 152.402 74.8078C153.274 74.4725 154.101 74.2155 154.884 74.0367C155.689 73.8355 156.404 73.7349 157.03 73.7349C158.037 73.7349 158.808 73.9808 159.345 74.4725C159.904 74.9419 160.183 75.7465 160.183 76.8864C160.183 77.1323 160.172 77.4005 160.15 77.691C160.127 77.9592 160.083 78.2498 160.015 78.5627C159.904 79.1438 159.568 79.8255 159.009 80.6078C158.45 81.3901 157.791 82.2059 157.03 83.0552C156.292 83.9046 155.488 84.7651 154.615 85.6368C153.766 86.4861 152.972 87.2795 152.234 88.0171C151.519 88.7324 150.915 89.3582 150.423 89.8946C149.953 90.431 149.719 90.7998 149.719 91.001C149.719 91.1798 149.73 91.3027 149.752 91.3697C149.775 91.4368 149.875 91.4703 150.054 91.4703C151.261 90.9563 152.603 90.3416 154.079 89.6264C155.577 88.8888 157.064 88.14 158.54 87.3801C160.016 86.6202 161.413 85.8826 162.732 85.1674C164.052 84.4298 165.17 83.7928 166.086 83.2564C166.288 83.1446 166.489 83.0552 166.69 82.9882C166.914 82.8988 167.115 82.8541 167.294 82.8541C167.696 82.8541 168.032 82.9882 168.3 83.2564C168.568 83.5246 168.703 83.8822 168.703 84.3292C168.703 84.8433 168.479 85.4356 168.032 86.1061C167.607 86.7543 166.88 87.436 165.852 88.1512C165.069 88.6429 164.186 89.2017 163.202 89.8275C162.24 90.431 161.223 91.068 160.15 91.7385C159.099 92.3867 158.025 93.0237 156.93 93.6495C155.857 94.2754 154.817 94.8341 153.811 95.3258C152.804 95.8176 151.854 96.2199 150.96 96.5328C150.088 96.8233 149.327 96.9686 148.679 96.9686C147.136 96.9686 145.973 96.5999 145.191 95.8623C144.43 95.1247 144.05 94.1748 144.05 93.0125C144.05 92.8337 144.061 92.6996 144.084 92.6102C144.24 91.6268 144.531 90.6769 144.956 89.7605C145.381 88.8441 145.861 87.9724 146.398 87.1454C146.935 86.3185 147.494 85.5362 148.075 84.7986C148.657 84.0387 149.182 83.3346 149.652 82.6864C150.143 82.0159 150.546 81.4013 150.859 80.8425C151.172 80.2837 151.329 79.7697 151.329 79.3003C151.329 79.1885 151.306 79.0768 151.262 78.965C151.217 78.8533 151.116 78.7974 150.96 78.7974C150.691 78.7974 150.244 78.898 149.618 79.0991C149.014 79.3003 148.366 79.5685 147.673 79.9038C146.979 80.239 146.32 80.6302 145.694 81.0772C145.068 81.5018 144.62 81.96 144.352 82.4518C143.994 83.0776 143.581 83.871 143.111 84.8321C142.642 85.7932 142.15 86.799 141.635 87.8495C141.143 88.9 140.663 89.9393 140.193 90.9674C139.724 91.9956 139.321 92.8784 138.986 93.616C138.717 94.2642 138.36 94.8453 137.912 95.3594C137.488 95.8734 137.018 96.3093 136.504 96.6669C135.989 97.0245 135.464 97.3039 134.927 97.5051C134.391 97.7062 133.899 97.8068 133.451 97.8068C132.937 97.8068 132.524 97.6727 132.21 97.4045C131.92 97.1363 131.774 96.7004 131.774 96.097C131.774 95.8511 131.808 95.5494 131.875 95.1917C131.965 94.8118 132.132 94.3983 132.378 93.9513C132.781 93.1913 133.183 92.3644 133.586 91.4703C134.011 90.5763 134.491 89.5593 135.028 88.4194C135.565 87.2572 136.179 85.9385 136.873 84.4633C137.588 82.9658 138.427 81.2448 139.388 79.3003C139.075 79.0321 138.807 78.708 138.583 78.328C138.382 77.9257 138.281 77.434 138.281 76.8529C138.281 76.3164 138.393 75.8583 138.617 75.4783C138.84 75.076 139.142 74.7519 139.522 74.506C139.902 74.2602 140.338 74.0814 140.83 73.9696C141.345 73.8355 141.881 73.7684 142.44 73.7684C143.022 73.7684 143.603 73.8243 144.184 73.9361C144.766 74.0255 145.28 74.1708 145.727 74.3719C146.197 74.5731 146.577 74.8189 146.868 75.1095C147.158 75.4001 147.304 75.7353 147.304 76.1153C147.304 76.1823 147.281 76.2717 147.237 76.3835C147.192 76.4952 147.136 76.6182 147.069 76.7523C147.024 76.8864 146.98 77.0093 146.935 77.1211C146.89 77.2328 146.868 77.3222 146.868 77.3893C146.868 77.434 146.879 77.4563 146.901 77.4563H146.935L147.002 77.4228Z" fill="black" stroke="black" stroke-linecap="square"/>
<path d="M205.798 54.625C205.798 55.2284 205.698 55.9548 205.496 56.8042C205.318 57.6535 205.049 58.5364 204.691 59.4527C204.334 60.3691 203.898 61.2855 203.383 62.2019C202.891 63.0959 202.321 63.9117 201.673 64.6493C201.024 65.3645 200.32 65.9457 199.56 66.3927C198.8 66.8397 197.983 67.0632 197.111 67.0632C196.91 67.0632 196.642 67.052 196.306 67.0296C195.993 66.985 195.669 66.9067 195.334 66.795C195.021 66.6609 194.741 66.4709 194.495 66.225C194.272 65.9792 194.16 65.6551 194.16 65.2528C194.16 64.9846 194.227 64.6716 194.361 64.314C194.518 63.9564 194.786 63.5429 195.166 63.0736C195.568 62.6265 196.004 62.1013 196.474 61.4978C196.944 60.872 197.368 60.2238 197.749 59.5533C198.129 58.8828 198.442 58.2234 198.688 57.5752C198.956 56.9271 199.09 56.346 199.09 55.8319C199.09 55.1837 198.934 54.6696 198.621 54.2897C198.33 53.8874 197.816 53.6862 197.078 53.6862C196.116 53.6862 195.032 53.9991 193.824 54.6249C192.617 55.2508 191.354 56.1113 190.034 57.2065C188.715 58.3016 187.373 59.5868 186.009 61.062C184.645 62.5148 183.326 64.0793 182.052 65.7556C180.777 67.4096 179.57 69.1418 178.429 70.9522C177.311 72.7403 176.327 74.5172 175.478 76.2829C174.65 78.0263 173.991 79.7138 173.499 81.3454C173.029 82.9546 172.794 84.4186 172.794 85.7373C172.794 87.3689 173.23 88.6765 174.103 89.6599C174.975 90.6433 176.417 91.1351 178.429 91.1351C179.368 91.1351 180.766 90.7774 182.622 90.0622C184.478 89.3246 186.021 88.5982 187.25 87.883C188.503 87.1454 189.755 86.3408 191.007 85.4691C192.281 84.5751 193.489 83.7257 194.629 82.9211C195.77 82.0941 196.809 81.3566 197.749 80.7084C198.688 80.0379 199.459 79.5685 200.063 79.3003C200.175 79.2109 200.309 79.1662 200.465 79.1662C200.801 79.1662 201.024 79.4456 201.136 80.0043C201.27 80.5407 201.337 81.1554 201.337 81.8483C201.337 82.2282 201.282 82.6976 201.17 83.2564C201.08 83.7928 200.767 84.4186 200.231 85.1338C199.985 85.4244 199.526 85.9161 198.855 86.609C198.185 87.3019 197.346 88.0842 196.34 88.9558C195.334 89.8275 194.182 90.7327 192.885 91.6715C191.588 92.6102 190.18 93.4707 188.659 94.253C187.161 95.0353 185.216 95.8064 182.823 96.5663C180.453 97.3262 178.385 97.7062 176.618 97.7062C174.539 97.7062 172.761 97.4603 171.285 96.9686C169.809 96.4546 168.602 95.7505 167.663 94.8565C166.724 93.9624 166.03 92.9008 165.583 91.6715C165.158 90.4198 164.946 89.0564 164.946 87.5813C164.946 85.7485 165.225 83.7816 165.784 81.6806C166.343 79.5797 167.115 77.4451 168.099 75.2771C169.105 73.1091 170.29 70.941 171.654 68.773C173.04 66.605 174.55 64.5375 176.182 62.5707C177.837 60.5814 179.592 58.7375 181.448 57.0388C183.304 55.3402 185.204 53.865 187.15 52.6134C189.095 51.3617 191.052 50.3783 193.019 49.663C194.987 48.9478 196.921 48.5902 198.822 48.5902C199.761 48.5902 200.655 48.702 201.505 48.9255C202.355 49.1266 203.093 49.4619 203.719 49.9313C204.367 50.4006 204.87 51.0265 205.228 51.8087C205.608 52.5687 205.798 53.5074 205.798 54.625Z" fill="black" stroke="black" stroke-linecap="square"/>
<path d="M211.668 78.6633C210.617 78.6633 209.6 78.9315 208.616 79.4679C207.632 80.0043 206.76 80.7084 206 81.5801C205.239 82.4518 204.636 83.4352 204.188 84.5304C203.741 85.6032 203.518 86.6872 203.518 87.7824C203.518 88.2294 203.54 88.6988 203.585 89.1905C203.652 89.6599 203.786 90.0957 203.987 90.4981C204.188 90.9004 204.468 91.2356 204.826 91.5038C205.206 91.7721 205.709 91.9062 206.335 91.9062C206.827 91.9062 207.397 91.6938 208.046 91.2692C208.716 90.8221 209.398 90.2634 210.091 89.5928C210.807 88.9 211.5 88.1512 212.171 87.3466C212.842 86.5196 213.446 85.715 213.982 84.9327C214.519 84.1504 214.955 83.4464 215.29 82.8205C215.626 82.1947 215.793 81.7365 215.793 81.446C215.793 81.0213 215.648 80.6413 215.357 80.3061C215.067 79.9485 214.709 79.6467 214.284 79.4009C213.859 79.155 213.401 78.9762 212.909 78.8644C212.439 78.7303 212.026 78.6633 211.668 78.6633ZM234.911 87.3131C234.509 87.693 233.972 88.2183 233.302 88.8888C232.631 89.5593 231.859 90.2857 230.987 91.068C230.138 91.8503 229.221 92.6437 228.237 93.4484C227.275 94.2307 226.28 94.9459 225.252 95.5941C224.246 96.2422 223.251 96.7675 222.267 97.1698C221.283 97.5945 220.355 97.8068 219.483 97.8068C218.7 97.8068 218.029 97.6392 217.47 97.3039C216.911 96.9686 216.442 96.5328 216.062 95.9964C215.704 95.4599 215.436 94.8565 215.257 94.1859C215.078 93.4931 214.988 92.789 214.988 92.0738C214.988 91.6044 215.022 91.1462 215.089 90.6992C215.156 90.2298 215.268 89.794 215.424 89.3917C214.731 90.3304 213.937 91.3027 213.043 92.3085C212.171 93.2919 211.221 94.1971 210.192 95.0241C209.186 95.8287 208.124 96.4881 207.006 97.0022C205.91 97.5386 204.792 97.8068 203.652 97.8068C203.07 97.8068 202.388 97.6839 201.606 97.438C200.845 97.2145 200.119 96.8345 199.426 96.2981C198.732 95.7617 198.151 95.0688 197.681 94.2195C197.212 93.3701 196.977 92.3308 196.977 91.1015C196.977 90.1851 197.111 89.09 197.38 87.816C197.67 86.542 198.095 85.2233 198.654 83.8599C199.236 82.4741 199.962 81.1107 200.834 79.7696C201.729 78.4286 202.78 77.2328 203.987 76.1823C205.195 75.1095 206.57 74.249 208.113 73.6008C209.655 72.9303 211.377 72.595 213.278 72.595C214.262 72.595 215.123 72.718 215.86 72.9638C216.598 73.2097 217.224 73.4779 217.739 73.7684C218.32 74.1261 218.834 74.5172 219.282 74.9419C219.662 74.7407 220.053 74.5507 220.455 74.3719C220.791 74.2155 221.137 74.0814 221.495 73.9696C221.875 73.8355 222.2 73.7684 222.468 73.7684C223.318 73.7684 224.011 74.0031 224.547 74.4725C225.084 74.9419 225.352 75.4559 225.352 76.0147C225.352 76.1712 225.341 76.2941 225.319 76.3835C225.207 76.8082 225.028 77.3446 224.782 77.9928C224.559 78.6409 224.301 79.3673 224.011 80.172C223.72 80.9542 223.418 81.7812 223.105 82.6529C222.814 83.5022 222.546 84.3404 222.3 85.1674C222.054 85.9944 221.853 86.7766 221.696 87.5142C221.54 88.2294 221.462 88.8441 221.462 89.3582C221.462 90.0287 221.573 90.5875 221.797 91.0345C222.021 91.4592 222.401 91.6715 222.937 91.6715C223.273 91.6715 223.664 91.5709 224.111 91.3697C224.581 91.1462 225.084 90.8557 225.621 90.4981C226.157 90.1404 226.705 89.7381 227.264 89.2911C227.846 88.8217 228.405 88.3524 228.941 87.883C230.193 86.7655 231.524 85.4915 232.933 84.061C233.29 83.7705 233.637 83.6252 233.972 83.6252C234.419 83.6252 234.788 83.8487 235.079 84.2957C235.392 84.7204 235.549 85.2009 235.549 85.7373C235.549 86.3632 235.336 86.8884 234.911 87.3131Z" fill="black" stroke="black" stroke-linecap="square"/>
<path d="M242.056 95.8287C242.056 94.7559 242.29 93.6607 242.76 92.5432C243.252 91.4256 243.867 90.2745 244.605 89.09C245.343 87.9054 246.148 86.7096 247.02 85.5026C247.892 84.2733 248.719 83.0217 249.502 81.7477C249.725 81.3901 249.904 81.0548 250.038 80.7419C250.172 80.4066 250.239 80.0714 250.239 79.7361C250.239 79.3785 250.139 79.0879 249.938 78.8644C249.736 78.6186 249.446 78.4957 249.066 78.4957C248.149 78.4957 247.266 78.6968 246.416 79.0991C245.566 79.4791 244.75 79.9932 243.967 80.6413C243.185 81.2672 242.436 81.9936 241.72 82.8205C241.027 83.6475 240.367 84.508 239.741 85.4021C239.138 86.2738 238.567 87.1454 238.031 88.0171C237.494 88.8888 237.002 89.6822 236.555 90.3975C236.152 91.1351 235.784 91.9397 235.448 92.8114C235.113 93.6831 234.744 94.4877 234.341 95.2253C233.961 95.9628 233.525 96.5775 233.033 97.0692C232.541 97.5833 231.926 97.8403 231.188 97.8403C230.383 97.8403 229.746 97.5833 229.277 97.0692C228.807 96.5551 228.572 95.9405 228.572 95.2253C228.572 94.8229 228.718 94.1971 229.008 93.3478C229.299 92.4985 229.668 91.515 230.115 90.3975C230.585 89.2576 231.11 88.0506 231.692 86.7766C232.273 85.5026 232.843 84.2398 233.402 82.9882C233.983 81.7365 234.52 80.5631 235.012 79.4679C235.526 78.3504 235.951 77.4005 236.287 76.6182C236.689 75.6571 237.215 74.9419 237.863 74.4725C238.534 74.0031 239.193 73.7684 239.842 73.7684C240.401 73.7684 240.893 73.9808 241.318 74.4054C241.765 74.8078 241.989 75.4001 241.989 76.1823C241.989 76.7635 241.854 77.4005 241.586 78.0933C242.19 77.5346 242.838 76.9311 243.531 76.2829C244.225 75.6347 244.974 75.0424 245.779 74.506C246.606 73.9472 247.523 73.4891 248.529 73.1314C249.535 72.7738 250.664 72.595 251.916 72.595C252.543 72.595 253.135 72.6733 253.694 72.8297C254.253 72.9862 254.745 73.232 255.17 73.5673C255.617 73.9025 255.975 74.3384 256.243 74.8748C256.534 75.4112 256.702 76.0594 256.746 76.8193C257.261 76.3053 257.82 75.8024 258.423 75.3106C259.027 74.7966 259.676 74.3384 260.369 73.9361C261.084 73.5338 261.856 73.2097 262.683 72.9638C263.51 72.718 264.427 72.595 265.433 72.595C266.171 72.595 266.876 72.6733 267.546 72.8297C268.217 72.9862 268.81 73.2544 269.324 73.6343C269.861 73.992 270.274 74.4613 270.565 75.0424C270.878 75.6236 271.035 76.3388 271.035 77.1881C271.035 78.5292 270.722 79.8032 270.095 81.0101C269.492 82.2171 268.776 83.3234 267.949 84.3292C267.681 84.6645 267.323 85.0892 266.876 85.6032C266.428 86.1173 265.992 86.6649 265.567 87.246C265.143 87.8271 264.774 88.4306 264.461 89.0564C264.148 89.6599 263.991 90.2299 263.991 90.7663C263.991 91.258 264.136 91.5709 264.427 91.705C264.74 91.8391 265.143 91.9062 265.635 91.9062C266.574 91.9062 267.591 91.6268 268.687 91.068C269.782 90.5092 270.845 89.8387 271.873 89.0564C272.924 88.2518 273.897 87.4248 274.791 86.5755C275.708 85.7038 276.435 84.9774 276.971 84.3963C277.105 84.2398 277.262 84.1281 277.441 84.061C277.62 83.994 277.799 83.9604 277.977 83.9604C278.38 83.9604 278.738 84.1392 279.051 84.4969C279.386 84.8545 279.554 85.3238 279.554 85.905C279.554 86.352 279.42 86.8437 279.151 87.3801C278.883 87.9165 278.425 88.4418 277.776 88.9559C276.569 90.1181 275.328 91.2356 274.053 92.3085C272.801 93.359 271.526 94.2977 270.23 95.1247C268.955 95.9293 267.669 96.5775 266.372 97.0692C265.098 97.5609 263.823 97.8068 262.549 97.8068C260.894 97.8068 259.553 97.4156 258.524 96.6334C257.518 95.8511 257.015 94.6106 257.015 92.9119C257.015 91.7944 257.227 90.7439 257.652 89.7605C258.077 88.7771 258.602 87.8383 259.228 86.9443C259.854 86.0279 260.514 85.145 261.207 84.2957C261.9 83.4464 262.504 82.597 263.018 81.7477C263.242 81.3901 263.421 81.0548 263.555 80.7419C263.689 80.4066 263.756 80.0714 263.756 79.7361C263.756 79.3785 263.656 79.0879 263.454 78.8644C263.253 78.6186 262.962 78.4957 262.582 78.4957C261.666 78.4957 260.782 78.6968 259.933 79.0991C259.083 79.4791 258.267 79.9932 257.484 80.6413C256.702 81.2672 255.953 81.9936 255.237 82.8205C254.544 83.6475 253.884 84.508 253.258 85.4021C252.654 86.2738 252.084 87.1454 251.548 88.0171C251.011 88.8888 250.519 89.6822 250.072 90.3975C249.669 91.1351 249.3 91.9397 248.965 92.8114C248.63 93.6831 248.261 94.4877 247.858 95.2253C247.478 95.9628 247.042 96.5775 246.55 97.0692C246.058 97.5833 245.443 97.8403 244.705 97.8403C244.437 97.8403 244.146 97.7844 243.833 97.6727C243.52 97.5833 243.229 97.4492 242.961 97.2704C242.715 97.0916 242.503 96.8792 242.324 96.6334C242.167 96.3875 242.078 96.1193 242.056 95.8287Z" fill="black" stroke="black" stroke-linecap="square"/>
<path d="M310.881 81.2113C311.194 81.0325 311.484 80.8872 311.753 80.7754C312.021 80.6637 312.278 80.6078 312.524 80.6078C313.016 80.6078 313.385 80.7978 313.631 81.1777C313.877 81.5354 314 81.9824 314 82.5188C314 83.0999 313.843 83.6922 313.53 84.2957C313.24 84.8992 312.792 85.4021 312.189 85.8044C309.796 87.5925 307.661 89.2241 305.783 90.6992C303.904 92.1744 302.127 93.4484 300.45 94.5212C298.795 95.5717 297.174 96.3875 295.586 96.9686C293.999 97.5497 292.299 97.8403 290.488 97.8403C288.789 97.8403 287.469 97.5274 286.53 96.9016C285.614 96.2758 285.155 95.4152 285.155 94.32C285.155 94.2306 285.155 94.1524 285.155 94.0854C285.155 93.996 285.166 93.8954 285.189 93.7836C285.278 93.1131 285.625 92.342 286.228 91.4703C286.832 90.5986 287.559 89.6934 288.409 88.7547C289.258 87.816 290.164 86.866 291.125 85.905C292.087 84.9439 292.97 84.0387 293.775 83.1893C294.602 82.3177 295.284 81.5242 295.821 80.809C296.358 80.0937 296.626 79.5126 296.626 79.0656C296.626 78.7974 296.514 78.5851 296.291 78.4286C296.067 78.2721 295.698 78.1939 295.184 78.1939C294.289 78.1939 293.361 78.3951 292.4 78.7974C291.461 79.1773 290.522 79.7026 289.583 80.3731C288.666 81.0213 287.76 81.77 286.866 82.6194C285.994 83.4687 285.166 84.3516 284.384 85.268C283.623 86.1843 282.919 87.1119 282.271 88.0506C281.645 88.967 281.108 89.8164 280.661 90.5986C280.527 90.8445 280.337 91.1909 280.091 91.638C279.845 92.085 279.576 92.5879 279.286 93.1466C278.995 93.7054 278.682 94.2865 278.346 94.89C278.033 95.4711 277.743 96.0299 277.474 96.5663C277.206 97.0804 276.96 97.5386 276.737 97.9409C276.535 98.3655 276.39 98.6561 276.3 98.8126C276.189 99.0137 275.999 99.3937 275.73 99.9525C275.484 100.511 275.194 101.159 274.858 101.897C274.523 102.657 274.165 103.45 273.785 104.277C273.427 105.104 273.081 105.887 272.745 106.624C272.432 107.362 272.153 108.01 271.907 108.569C271.661 109.127 271.504 109.507 271.437 109.709C271.213 110.29 270.956 110.837 270.666 111.351C270.353 111.865 270.006 112.312 269.626 112.692C269.223 113.095 268.776 113.408 268.284 113.631C267.77 113.877 267.2 114 266.574 114C265.769 114 265.109 113.832 264.595 113.497C264.058 113.184 263.79 112.57 263.79 111.653C263.79 111.206 263.857 110.748 263.991 110.279C264.125 109.809 264.293 109.34 264.494 108.87C264.695 108.423 264.908 107.976 265.131 107.529C265.333 107.105 265.523 106.691 265.702 106.289C266.909 104.054 268.139 101.808 269.391 99.5501C270.643 97.3151 271.84 95.1023 272.98 92.9119C274.143 90.6992 275.216 88.5312 276.2 86.4079C277.184 84.2845 278 82.2506 278.648 80.3061C278.827 79.9038 279.073 79.3338 279.386 78.5962C279.699 77.8586 280.057 77.1323 280.459 76.417C280.862 75.7018 281.309 75.0871 281.801 74.5731C282.315 74.0367 282.863 73.7684 283.445 73.7684C284.339 73.7684 284.987 73.9472 285.39 74.3049C285.792 74.6401 285.994 75.143 285.994 75.8136C285.994 75.9477 285.971 76.16 285.927 76.4505C285.882 76.7411 285.826 77.054 285.759 77.3893C285.692 77.7022 285.614 78.0039 285.524 78.2945C285.457 78.5851 285.39 78.7974 285.323 78.9315C286.15 78.1716 287.045 77.4228 288.006 76.6852C288.968 75.9253 289.963 75.2436 290.991 74.6401C292.02 74.0367 293.071 73.5449 294.144 73.165C295.217 72.785 296.291 72.595 297.364 72.595C298.102 72.595 298.829 72.6844 299.544 72.8632C300.282 73.042 300.93 73.3103 301.489 73.6679C302.071 74.0031 302.54 74.439 302.898 74.9754C303.256 75.4895 303.435 76.0929 303.435 76.7858C303.435 77.7022 303.155 78.6856 302.596 79.7361C302.06 80.7643 301.378 81.8036 300.55 82.8541C299.723 83.9046 298.829 84.9327 297.867 85.9385C296.906 86.9219 296 87.8271 295.15 88.6541C294.323 89.4587 293.619 90.1516 293.037 90.7327C292.478 91.2915 292.188 91.6715 292.165 91.8726C292.165 92.1408 292.266 92.3644 292.467 92.5432C292.668 92.6996 293.004 92.7778 293.473 92.7778C293.853 92.7778 294.412 92.599 295.15 92.2414C295.888 91.8838 296.917 91.2692 298.236 90.3975C299.578 89.5034 301.266 88.3189 303.301 86.8437C305.358 85.3462 307.884 83.4687 310.881 81.2113Z" fill="black" stroke="black" stroke-linecap="square"/>
</g>
</svg>
